<svg width="69" height="70" viewBox="0 0 69 70" fill="none" xmlns="http://www.w3.org/2000/svg">
<path d="M47.5525 20.625C45.2381 13.8256 40.2615 9.125 34.5 9.125C26.5247 9.125 20.0588 16.692 20.0588 27.801C20.0588 33.4245 24.6071 41.3911 27.2808 45.051" stroke="#A6BDCF" stroke-width="2" stroke-linecap="round" stroke-linejoin="round"/>
<path d="M13.5441 34.9396C8.78313 40.336 7.17888 46.9714 10.0625 51.9337C14.0501 58.8049 24.8343 60.0728 34.5029 54.5212C39.399 51.7066 42.7685 44.8554 44.6114 40.7269" stroke="#A6BDCF" stroke-width="2" stroke-linecap="round" stroke-linejoin="round"/>
<path d="M43.1652 57.9712C50.3843 57.9712 56.1688 56.712 58.9403 51.9337C62.928 45.0625 58.3222 34.9914 48.6507 29.4397C43.7575 26.6251 36.1243 25.8891 31.6106 26.3635" stroke="#A6BDCF" stroke-width="2" stroke-linecap="round" stroke-linejoin="round"/>
<path d="M30.1674 28.8533C31.5474 29.6468 33.3155 29.1753 34.1119 27.801C34.492 27.1406 34.5943 26.3563 34.3965 25.6205C34.1986 24.8846 33.7168 24.2574 33.0568 23.8766C32.3934 23.4945 31.6056 23.3906 30.8658 23.5878C30.126 23.785 29.4945 24.2672 29.1094 24.9289C28.7295 25.5897 28.6276 26.3742 28.826 27.1101C29.0244 27.846 29.5069 28.473 30.1674 28.8533ZM24.4375 45.0625C24.4375 45.825 24.7404 46.5563 25.2796 47.0954C25.8187 47.6346 26.55 47.9375 27.3125 47.9375C28.075 47.9375 28.8063 47.6346 29.3454 47.0954C29.8846 46.5563 30.1875 45.825 30.1875 45.0625C30.1875 44.3 29.8846 43.5688 29.3454 43.0296C28.8063 42.4904 28.075 42.1875 27.3125 42.1875C26.55 42.1875 25.8187 42.4904 25.2796 43.0296C24.7404 43.5688 24.4375 44.3 24.4375 45.0625ZM41.6875 40.75C41.6875 41.5125 41.9904 42.2438 42.5296 42.7829C43.0687 43.3221 43.8 43.625 44.5625 43.625C45.325 43.625 46.0563 43.3221 46.5954 42.7829C47.1346 42.2438 47.4375 41.5125 47.4375 40.75C47.4375 39.9875 47.1346 39.2563 46.5954 38.7171C46.0563 38.1779 45.325 37.875 44.5625 37.875C43.8 37.875 43.0687 38.1779 42.5296 38.7171C41.9904 39.2563 41.6875 39.9875 41.6875 40.75Z" stroke="#A6BDCF" stroke-width="2" stroke-linecap="round" stroke-linejoin="round"/>
</svg>
