<svg width="70" height="70" viewBox="0 0 70 70" fill="none" xmlns="http://www.w3.org/2000/svg">
<path d="M14 57.75V50.75H7V57.75H3.5V40.25H7V47.25H14V40.25H17.5V57.75H14ZM24.5 57.75V43.75H19.6V40.25H32.55V43.75H28V57.75H24.5ZM35 57.75V40.25H38.5L43.4 52.15H43.75L49 40.25H52.5V57.75H49V46.9H48.65L44.8 55.65H42.7L38.85 46.9H38.5V57.75H35ZM66.5 57.75H56V40.25H59.5V54.25H66.5V57.75ZM32.9 16.45L24.85 24.5L32.9 32.55L30.8 36.75L18.55 24.5L30.8 12.25L32.9 16.45ZM37.1 32.55L45.15 24.5L37.1 16.45L39.2 12.25L51.45 24.5L39.2 36.75L37.1 32.55Z" fill="#A6BDCF"/>
</svg>
