<svg width="70" height="70" viewBox="0 0 70 70" fill="none" xmlns="http://www.w3.org/2000/svg">
<path d="M11.0834 35V58.9167H58.9167V11.0834H11.0834V35ZM49.6281 33.0927C50.7748 33.3627 51.8169 33.9635 52.6251 34.8207C53.0616 35.287 53.7148 36.1436 53.7701 36.3543C53.7851 36.4171 51.7073 37.8102 50.4457 38.589C50.3994 38.6204 50.2125 38.4261 50.0092 38.1212C49.3949 37.2258 48.7476 36.8371 47.7596 36.7669C46.3111 36.6727 45.3769 37.4291 45.3844 38.6982C45.3768 39.0087 45.4461 39.3163 45.5862 39.5935C45.906 40.2557 46.5055 40.6518 48.3575 41.4546C51.7836 42.9254 53.247 43.8985 54.1573 45.2767C55.1767 46.8179 55.4025 49.2783 54.7178 51.1154C53.9555 53.1005 52.0706 54.4548 49.4233 54.8987C48.6056 55.0467 46.6594 55.0228 45.779 54.8598C43.8567 54.5175 42.0345 53.5668 40.9134 52.3217C40.4695 51.8389 39.613 50.5698 39.6683 50.4846C39.6922 50.4532 39.8865 50.3291 40.1048 50.2036L41.8806 49.1751L43.2588 48.3739L43.5473 48.8015C43.9523 49.4158 44.8313 50.2574 45.3619 50.5369C46.8881 51.3471 48.9823 51.2305 50.0182 50.3037C50.4382 49.9539 50.6729 49.4158 50.6415 48.8717C50.6415 48.3186 50.5713 48.0705 50.2828 47.6564C49.9091 47.1273 49.1542 46.6759 46.9972 45.7416C44.5293 44.6743 43.4621 44.0211 42.4979 42.9703C41.891 42.2786 41.4421 41.4629 41.1825 40.5801C41.0031 39.903 40.9568 38.2049 41.0973 37.5277C41.604 35.1376 43.4097 33.4798 46.0017 32.9895C46.8433 32.8266 48.8044 32.8879 49.6296 33.0912L49.6281 33.0927ZM38.4022 35.0942L38.4171 37.0479H32.1883V54.7447H27.7817V37.0479H21.5619V35.1331C21.5619 34.0658 21.5858 33.1794 21.6157 33.1555C21.6396 33.1241 25.4229 33.1091 30.0164 33.1166L38.3783 33.1405L38.4022 35.0942Z" fill="#A6BDCF"/>
</svg>
