<svg width="57" height="58" viewBox="0 0 57 58" fill="none" xmlns="http://www.w3.org/2000/svg">
<g clip-path="url(#clip0_210_25)">
<path fill-rule="evenodd" clip-rule="evenodd" d="M8.20296e-07 29C0.000183584 23.9959 1.27292 19.077 3.69446 14.7215C6.116 10.3661 9.60393 6.72239 13.8191 4.14467C18.0343 1.56695 22.8332 0.142958 27.7494 0.0111608C32.6655 -0.120637 37.5315 1.04424 41.8742 3.39253C46.2169 5.74082 49.8886 9.1926 52.5322 13.4122C55.1757 17.6319 56.7013 22.4758 56.9604 27.473C57.2195 32.4701 56.2035 37.4505 54.011 41.9298C51.8186 46.4091 48.5243 50.2349 44.4486 53.0352L18.6466 16.2787C18.4128 15.9453 18.081 15.6961 17.6991 15.567C17.3171 15.4378 16.9047 15.4355 16.5214 15.5602C16.138 15.6849 15.8035 15.9303 15.566 16.261C15.3285 16.5916 15.2003 16.9905 15.2 17.4V46.4H19V23.432L41.154 54.9918C36.8083 57.1829 31.985 58.2094 27.1406 57.974C22.2962 57.7386 17.591 56.2491 13.4703 53.6466C9.34956 51.0441 5.94972 47.4146 3.59254 43.1017C1.23536 38.7887 -0.00116266 33.935 8.20296e-07 29ZM38 38.6667V15.4667H41.8V38.6667H38Z" fill="#A6BDCF"/>
</g>
<defs>
<clipPath id="clip0_210_25">
<rect width="57" height="58" fill="white"/>
</clipPath>
</defs>
</svg>
