<svg width="70" height="70" viewBox="0 0 70 70" fill="none" xmlns="http://www.w3.org/2000/svg">
<path fill-rule="evenodd" clip-rule="evenodd" d="M11.0834 11.0834H58.9167V58.9167H11.0834V11.0834ZM47.65 51.1837C45.4317 51.1837 44.1781 50.0277 43.2154 48.4532L39.5621 50.5758C40.8815 53.1827 43.5782 55.1718 47.7536 55.1718C52.0227 55.1718 55.2016 52.9555 55.2016 48.9076C55.2016 45.1547 53.0452 43.4865 49.2265 41.8462L48.1024 41.3659C46.1731 40.5288 45.338 39.9847 45.338 38.6354C45.338 37.5452 46.1751 36.7101 47.4905 36.7101C48.78 36.7101 49.6111 37.2542 50.3824 38.6354L53.8822 36.3892C52.4014 33.7843 50.3486 32.7897 47.4905 32.7897C43.4765 32.7897 40.9075 35.3568 40.9075 38.729C40.9075 42.3863 43.06 44.1183 46.3047 45.4995L47.4287 45.9818C49.4796 46.8787 50.7013 47.4247 50.7013 48.9654C50.7013 50.2529 49.5115 51.1837 47.65 51.1837ZM30.2307 51.1538C28.686 51.1538 28.0423 50.0974 27.3367 48.8418L23.6775 51.0581C24.7378 53.3023 26.8225 55.1638 30.42 55.1638C34.4041 55.1638 37.1326 53.0452 37.1326 48.3914V33.0449H32.6383V48.3316C32.6383 50.5778 31.7055 51.1538 30.2287 51.1538H30.2307Z" fill="#A6BDCF"/>
</svg>
