<svg width="65" height="66" viewBox="0 0 65 66" fill="none" xmlns="http://www.w3.org/2000/svg">
<path d="M8.125 33C8.125 36.201 8.75548 39.3706 9.98044 42.3279C11.2054 45.2852 13.0008 47.9723 15.2643 50.2357C17.5277 52.4992 20.2148 54.2946 23.1721 55.5196C26.1294 56.7445 29.299 57.375 32.5 57.375C35.701 57.375 38.8706 56.7445 41.8279 55.5196C44.7852 54.2946 47.4723 52.4992 49.7357 50.2357C51.9992 47.9723 53.7946 45.2852 55.0196 42.3279C56.2445 39.3706 56.875 36.201 56.875 33C56.875 29.799 56.2445 26.6294 55.0196 23.6721C53.7946 20.7148 51.9992 18.0277 49.7357 15.7643C47.4723 13.5008 44.7852 11.7054 41.8279 10.4804C38.8706 9.25548 35.701 8.625 32.5 8.625C29.299 8.625 26.1294 9.25548 23.1721 10.4804C20.2148 11.7054 17.5277 13.5008 15.2643 15.7643C13.0008 18.0277 11.2054 20.7148 9.98044 23.6721C8.75548 26.6294 8.125 29.799 8.125 33Z" stroke="#A6BDCF" stroke-width="2" stroke-linecap="round" stroke-linejoin="round"/>
<path d="M29.7917 43.8333C31.4782 42.5763 32.8467 40.9416 33.7874 39.0603C34.728 37.179 35.2147 35.1033 35.2084 33C35.2063 30.8981 34.7159 28.8254 33.7759 26.9454C32.8359 25.0654 31.472 23.4294 29.7917 22.1666M37.9167 24.875H32.5M37.9167 41.125H32.5M27.0834 33H27.1105" stroke="#A6BDCF" stroke-width="2" stroke-linecap="round" stroke-linejoin="round"/>
</svg>
