<svg width="68" height="68" viewBox="0 0 68 68" fill="none" xmlns="http://www.w3.org/2000/svg">
<path d="M34 5.66663C37.7207 5.66663 41.4051 6.39949 44.8427 7.82337C48.2802 9.24726 51.4037 11.3343 54.0347 13.9653C56.6656 16.5963 58.7527 19.7197 60.1766 23.1573C61.6004 26.5948 62.3333 30.2792 62.3333 34C62.3333 41.5144 59.3482 48.7211 54.0347 54.0347C48.7211 59.3482 41.5144 62.3333 34 62.3333C30.2792 62.3333 26.5948 61.6004 23.1573 60.1766C19.7197 58.7527 16.5963 56.6656 13.9653 54.0347C8.65174 48.7211 5.66663 41.5144 5.66663 34C5.66663 26.4855 8.65174 19.2788 13.9653 13.9653C19.2788 8.65174 26.4855 5.66663 34 5.66663ZM28.3333 43.435C28.7866 44.965 28.73 46.3816 28.3333 47.685C28.3333 47.8266 28.22 47.9683 28.1633 48.1666C28.1066 48.1666 28.05 48.365 27.965 48.5066C27.6533 49.1866 27.2 49.8383 26.6616 50.405C25.0183 52.2183 22.6666 52.8983 21.7316 52.3316C20.655 51.7083 21.25 49.1583 23.12 47.1466C25.16 44.9933 28.1066 43.5766 28.1066 43.5766L28.3333 43.435ZM51.765 17.7933C50.49 12.75 42.1316 11.1066 34.255 13.9116C29.5516 15.5833 24.4516 18.19 20.7966 21.6183C16.4616 25.6983 15.7533 29.24 16.0366 30.7133C17 35.9266 24.1966 39.355 27.1433 41.8766V41.905C26.2933 42.33 19.9466 45.5316 18.4166 48.8183C16.8866 52.275 18.7 54.7683 19.8333 55.1083C23.63 56.1283 27.455 54.2866 29.495 51.1983C31.4783 48.2516 31.3366 44.4266 30.4583 42.5C31.6483 42.2166 33.0366 42.075 34.7933 42.2733C39.78 42.8683 40.7433 45.9566 40.545 47.26C40.375 48.5633 39.3266 49.2716 38.9866 49.4983C38.6466 49.6966 38.5333 49.7816 38.5616 49.9516C38.59 50.1783 38.76 50.1783 39.0433 50.1216C39.4683 50.0366 41.6783 49.0733 41.7633 46.665C41.8766 43.605 38.9583 40.205 33.8016 40.29C31.6766 40.3466 30.345 40.545 29.3816 40.9133L29.155 40.6583C25.9533 37.2583 20.06 34.85 20.315 30.26C20.4 28.5883 20.9666 24.225 31.6483 18.8983C40.375 14.535 47.3733 15.725 48.5916 18.4166C50.32 22.185 44.8516 29.24 35.785 30.26C32.3283 30.6566 30.4866 29.2966 30.0333 28.815C29.5516 28.3333 29.495 28.2483 29.325 28.3333C29.0133 28.5316 29.2116 28.985 29.325 29.2683C29.58 29.9766 30.7133 31.1666 32.5833 31.8466C34.255 32.385 38.335 32.6966 43.2366 30.7983C48.7333 28.6733 53.04 22.7516 51.765 17.7933Z" fill="#A6BDCF"/>
</svg>
