<svg width="65" height="66" viewBox="0 0 65 66" fill="none" xmlns="http://www.w3.org/2000/svg">
<path d="M32.5001 16.75C25.2688 16.75 20.773 20.3521 18.9584 27.5833C21.6667 23.9812 24.8355 22.6271 28.4376 23.5208C30.4959 24.0354 31.9855 25.525 33.6105 27.1771C36.2647 29.8854 39.2709 33 46.0418 33C53.273 33 57.7688 29.3979 59.5834 22.1667C56.8751 25.7687 53.7063 27.1229 50.1043 26.2292C48.0459 25.7146 46.5834 24.225 44.9313 22.5729C42.2772 19.8646 39.2709 16.75 32.5001 16.75ZM18.9584 33C11.7272 33 7.23133 36.6021 5.41675 43.8333C8.12508 40.2312 11.2938 38.8771 14.8959 39.7708C16.9542 40.2854 18.4167 41.775 20.0688 43.4271C22.723 46.1354 25.7292 49.25 32.5001 49.25C39.7313 49.25 44.2272 45.6479 46.0418 38.4167C43.3334 42.0187 40.1647 43.3729 36.5626 42.4792C34.5042 41.9646 33.0418 40.475 31.3897 38.8229C28.7355 36.1146 25.7292 33 18.9584 33Z" fill="#A6BDCF"/>
</svg>
